<?xml version="1.0" standalone="no"?>
<!DOCTYPE svg PUBLIC "-//W3C//DTD SVG 20010904//EN"
 "http://www.w3.org/TR/2001/REC-SVG-20010904/DTD/svg10.dtd">
<svg version="1.0" xmlns="http://www.w3.org/2000/svg"
 width="507.000000pt" height="321.000000pt" viewBox="0 0 507.000000 321.000000"
 preserveAspectRatio="xMidYMid meet">

<g transform="translate(0.000000,321.000000) scale(0.100000,-0.100000)"
fill="#000000" stroke="none">
<path d="M726 2783 c-352 -233 -641 -425 -643 -427 -2 -2 148 -142 334 -312
186 -170 413 -377 505 -461 l167 -153 1443 0 1443 0 507 458 c278 251 507 459
507 462 0 5 -1281 821 -1300 828 -5 2 -10 -146 -11 -330 l-3 -333 -1152 -3
-1153 -2 -2 348 -3 348 -639 -423z m594 -3 c0 -296 1 -310 19 -320 21 -11
2336 -15 2365 -4 14 5 16 43 16 315 0 183 4 309 9 309 5 0 252 -156 548 -347
296 -190 557 -358 581 -373 l42 -28 -472 -430 -473 -431 -1435 0 -1435 0 -455
429 c-250 236 -455 433 -455 439 0 12 1114 751 1133 751 9 0 12 -69 12 -310z"/>
<path d="M1188 2937 l-48 -32 0 -225 0 -225 83 -83 82 -82 1216 0 1216 0 87
77 86 77 0 225 0 226 -50 33 -50 32 0 -257 0 -258 -34 -27 -35 -28 -1213 0
-1213 1 -32 29 -33 30 0 260 c0 143 -3 260 -7 259 -5 0 -29 -15 -55 -32z"/>
<path d="M988 2805 l-68 -45 0 -174 0 -174 172 -156 171 -156 1253 0 1254 0
175 161 175 161 0 168 0 167 -62 41 -63 42 -3 -214 -2 -214 -110 -101 -110
-101 -1242 0 -1243 0 -112 101 -113 100 -2 220 -3 219 -67 -45z"/>
<path d="M757 2653 l-68 -46 3 -112 3 -111 260 -237 260 -236 1302 -1 1303 0
260 235 260 236 0 119 0 118 -65 41 c-35 23 -67 41 -70 41 -3 0 -5 -69 -5
-154 l0 -154 -194 -181 -195 -181 -1293 0 -1294 0 -192 172 -192 172 0 163 c0
90 -3 163 -7 162 -5 0 -39 -21 -76 -46z"/>
<path d="M4429 2458 l0 -103 -282 -257 -282 -258 -1342 0 -1342 0 -285 258
-285 257 0 98 c-1 53 -3 97 -6 97 -3 0 -37 -21 -75 -46 l-70 -47 1 -51 0 -51
352 -317 352 -317 1350 0 1350 -1 353 321 352 320 0 54 0 54 -57 39 c-32 21
-64 42 -70 46 -10 6 -13 -16 -14 -96z"/>
<path d="M4640 2372 l0 -47 -370 -338 -370 -337 -1388 0 -1387 1 -370 338
c-343 314 -370 342 -373 375 -2 20 -6 36 -9 36 -4 0 -28 -14 -55 -31 -41 -26
-47 -34 -36 -45 7 -7 197 -182 423 -388 l410 -375 1408 0 1408 -1 425 386
c233 213 424 388 424 390 0 3 -129 84 -135 84 -3 0 -5 -21 -5 -48z"/>
<path d="M1332 1151 c462 -422 1214 -1101 1219 -1101 6 0 1165 1046 1254 1131
19 19 -5 19 -1254 19 l-1273 0 54 -49z m2318 -45 c-128 -126 -1087 -986 -1100
-986 -12 0 -528 469 -1119 1016 -2 2 504 4 1125 4 l1129 0 -35 -34z"/>
<path d="M1620 1066 c0 -6 919 -840 928 -844 5 -1 712 632 941 844 2 2 -23 4
-57 4 l-61 0 -408 -370 c-224 -204 -411 -369 -415 -368 -4 2 -188 168 -408
371 l-401 367 -59 0 c-33 0 -60 -2 -60 -4z"/>
<path d="M1855 1062 c6 -5 164 -150 353 -321 l343 -310 327 296 c180 163 338
306 352 319 l25 24 -56 0 -56 0 -287 -262 c-159 -145 -294 -264 -302 -266 -7
-2 -142 115 -300 260 l-286 263 -62 3 c-38 2 -57 0 -51 -6z"/>
<path d="M2095 1051 c238 -224 448 -412 458 -408 10 4 400 349 462 408 19 19
19 19 -30 19 -55 0 -28 21 -342 -267 l-92 -85 -188 176 -188 176 -50 0 c-49 0
-49 0 -30 -19z"/>
<path d="M2290 1066 c0 -2 59 -57 130 -121 116 -104 132 -116 148 -104 9 7 64
56 122 108 58 52 112 101 120 108 12 11 7 13 -32 13 -45 0 -50 -4 -131 -80
-47 -44 -88 -80 -92 -80 -4 0 -47 36 -95 80 -80 73 -91 80 -129 80 -22 0 -41
-2 -41 -4z"/>
<path d="M2517 1039 l31 -32 36 29 c27 21 32 30 20 32 -8 2 -24 -4 -33 -12
-16 -15 -19 -15 -31 -1 -7 8 -22 15 -34 15 -19 0 -18 -3 11 -31z"/>
</g>
</svg>
